<?xml version="1.0" encoding="utf-8"?>
<!-- Designed by Vexels.com - 2020 All Rights Reserved - https://vexels.com/terms-and-conditions/  -->
<svg version="1.1" id="Layer_1" xmlns="http://www.w3.org/2000/svg" xmlns:xlink="http://www.w3.org/1999/xlink" x="0px" y="0px"
	 viewBox="0 0 1200 1200" enable-background="new 0 0 1200 1200" xml:space="preserve">
<g>
	<path fill="#FFFFFF" d="M767.3,992.873c0,0,0.613,24.584-5.701,31.833c-3.785,4.344-25.836,11.507-27.845,8.458
		c-2.786-4.229,16.971-18.111,16.971-18.111l2.895-20.257L767.3,992.873z"/>
	<path fill="#520747" d="M759.707,1150c-0.187,0-0.362-0.117-0.427-0.304L558.685,573.144c-0.081-0.235,0.042-0.493,0.279-0.576
		c0.237-0.078,0.493,0.042,0.576,0.279L760.134,1149.4c0.081,0.235-0.042,0.493-0.279,0.576L759.707,1150z"/>
	<path fill="#520747" d="M889.389,1150c-0.187,0-0.362-0.117-0.427-0.304L688.367,573.144c-0.081-0.235,0.042-0.493,0.279-0.576
		c0.238-0.078,0.493,0.042,0.576,0.279L889.817,1149.4c0.081,0.235-0.042,0.493-0.279,0.576L889.389,1150z"/>
	<path fill="#520747" d="M845.639,1026.973H716.903c-0.249,0-0.452-0.203-0.452-0.452c0-0.249,0.203-0.452,0.452-0.452h128.737
		c0.249,0,0.452,0.203,0.452,0.452C846.091,1026.77,845.888,1026.973,845.639,1026.973z"/>
	<path fill="#520747" d="M813.098,932.813H684.361c-0.249,0-0.452-0.203-0.452-0.452c0-0.249,0.203-0.452,0.452-0.452h128.737
		c0.249,0,0.452,0.203,0.452,0.452C813.55,932.61,813.347,932.813,813.098,932.813z"/>
	<path fill="#520747" d="M780.096,835.811H651.358c-0.249,0-0.452-0.203-0.452-0.452c0-0.249,0.203-0.452,0.452-0.452h128.738
		c0.249,0,0.452,0.203,0.452,0.452C780.548,835.608,780.345,835.811,780.096,835.811z"/>
	<path fill="#520747" d="M747.073,741.651H618.336c-0.249,0-0.452-0.203-0.452-0.452c0-0.249,0.203-0.452,0.452-0.452h128.737
		c0.249,0,0.452,0.203,0.452,0.452C747.525,741.448,747.322,741.651,747.073,741.651z"/>
	<path fill="#520747" d="M713.373,643.343H584.637c-0.249,0-0.452-0.203-0.452-0.452c0-0.249,0.203-0.452,0.452-0.452h128.737
		c0.249,0,0.452,0.203,0.452,0.452C713.825,643.14,713.622,643.343,713.373,643.343z"/>
	<path fill="#A83119" d="M812.62,481.546c-0.404-5.489-6.363-0.518-11.103-3.193c-4.807-2.713-7.108-0.665-11.838,2.182
		c-4.73,2.847-8.524-4.357-11.912,0.001c-11.945,15.368-24.715,30.077-36.706,45.449c-3.656,4.686-12.402-2.783-18.071-7.075
		c-6.804-5.153-13.509-10.433-20.275-15.635c-6.47-4.975-12.951-9.965-19.697-14.563c-3.208-2.187-8.044-6.407-12.184-6.499
		c-8.781-0.195,0.381,45.161,9.818,65.237c7.539,16.038,28.781,45.321,56.515,41.537c19.425-2.649,34.96-15.829,46.778-30.695
		c16.723-21.036,29.07-48.055,28.738-75.259C812.676,482.54,812.655,482.044,812.62,481.546z"/>
	<path fill="#187A77" d="M679.191,491.145c7.722,11.936-10.319,25.776-18.483,11.523c-8.012-13.988,3.857-20.844,3.857-20.844
		S676.193,486.511,679.191,491.145"/>
	<path fill="#20A39F" d="M679.162,491.129c-9.443-3.399-14.304,0.106-16.65,4.127c-0.62,1.015-1.054,2.078-1.367,3.047
		c-0.474,1.498-0.665,2.843-0.658,3.639c-0.255-0.588-0.738-1.567-1.414-2.866c-0.175-0.356-0.385-0.73-0.597-1.12
		c-0.888-1.707-2.061-3.822-3.426-6.291c-0.77-1.422-1.633-2.967-2.556-4.62c-1.268-2.256-2.632-4.707-4.091-7.3
		c-1.248-2.219-2.555-4.547-3.937-6.961c-1.343-2.362-2.726-4.812-4.165-7.334c-1.304-2.291-2.647-4.635-4.009-7.014
		c-1.365-2.434-2.785-4.884-4.223-7.386c-1.361-2.379-2.742-4.795-4.124-7.227c-1.397-2.343-2.742-4.74-4.123-7.118v-0.018
		c-1.824-3.177-3.643-6.338-5.446-9.462c-1.325-2.29-2.647-4.563-3.932-6.817c-1.476-2.557-2.934-5.077-4.352-7.509
		c-1.344-2.362-2.685-4.669-3.952-6.889c-1.493-2.538-2.915-5.005-4.256-7.331c-1.381-2.378-2.684-4.632-3.891-6.728
		c-1.303-2.235-2.493-4.313-3.584-6.141c-1.593-2.769-2.895-5.023-3.837-6.675c-0.613-1.047-1.091-1.864-1.381-2.379
		c-1.63-2.84-1.148-5.786,0.486-8.372c2.494-3.935,7.622-7.033,11.981-7.609c2.736-0.362,5.197,0.245,6.477,2.302l0.057,0.071
		c0.534,0.886,1.916,3.302,3.915,6.871c0.941,1.688,2.016,3.625,3.228,5.774c1.306,2.345,2.766,4.957,4.323,7.745
		c1.038,1.865,2.114,3.819,3.23,5.845c1.613,2.877,3.307,5.934,5.037,9.096c1.075,1.901,2.152,3.838,3.246,5.809
		c1.653,2.966,3.327,6.004,5.037,9.079c1.077,1.954,2.172,3.926,3.269,5.915c1.442,2.594,2.865,5.207,4.307,7.818
		c1.115,1.99,2.231,3.979,3.307,5.97c1.672,3.003,3.327,6.004,4.96,8.936c1.115,2.025,2.211,4.016,3.307,5.969
		c1.711,3.092,3.365,6.094,4.979,9.009c1.117,2.043,2.212,4.033,3.271,5.952c1.212,2.185,2.383,4.299,3.48,6.307
		c1.152,2.061,2.249,4.051,3.268,5.899C675.546,484.553,678.95,490.72,679.162,491.129"/>
	<path fill="#187A77" d="M615.336,375.793c-4.952,5.198-10.293,12.709-13.456,22.883c-1.375-2.378-2.677-4.637-3.887-6.725
		c2.577-6.866,6.907-14.64,14.109-21.935C613.039,371.698,614.126,373.635,615.336,375.793"/>
	<path fill="#187A77" d="M608.138,363.069c-4.972,5.093-10.436,12.557-13.72,22.734c-1.597-2.768-2.899-5.027-3.851-6.675
		c2.233-5.783,5.71-12.16,11.096-18.358C604.399,360.405,606.861,361.017,608.138,363.069"/>
	<path fill="#187A77" d="M631.168,404.291c-4.827,5.333-9.874,12.868-12.798,22.931c-1.32-2.292-2.642-4.569-3.926-6.811
		c2.409-6.791,6.532-14.558,13.489-21.931C628.998,400.383,630.084,402.32,631.168,404.291"/>
	<path fill="#187A77" d="M622.893,389.37c-4.907,5.49-9.984,13.2-12.794,23.519c-1.359-2.361-2.698-4.653-3.963-6.879
		c2.352-6.894,6.433-14.883,13.522-22.469C620.686,385.394,621.772,387.349,622.893,389.37"/>
	<path fill="#187A77" d="M639.48,419.281c-4.738,5.934-9.319,14.009-11.534,24.55c-1.393-2.36-2.751-4.755-4.128-7.132v-0.018
		c1.938-6.881,5.576-15.236,12.389-23.314C637.29,415.321,638.377,417.292,639.48,419.281"/>
	<path fill="#187A77" d="M655.351,447.969c-4.629,6.104-8.929,14.273-10.886,24.822c-1.339-2.361-2.734-4.823-4.167-7.338
		c1.734-6.771,5.125-15.204,11.743-23.448C653.162,444.026,654.265,446.014,655.351,447.969"/>
	<path fill="#187A77" d="M663.609,462.925c-4.599,5.896-8.976,13.843-11.114,24.121c-1.268-2.26-2.629-4.707-4.098-7.305
		c1.891-6.724,5.398-14.851,11.939-22.765C661.456,459.016,662.544,461.005,663.609,462.925"/>
	<path fill="#187A77" d="M670.36,475.146c-4.637,5.827-9.086,13.724-11.295,23.935c-0.96-1.854-2.323-4.37-4.015-7.411
		c1.962-6.692,5.525-14.681,12.036-22.438C668.244,471.303,669.33,473.292,670.36,475.146"/>
	<path fill="#187A77" d="M647.095,433.065c-4.658,6.226-8.953,14.585-10.798,25.372c-1.378-2.429-2.79-4.892-4.221-7.388
		c1.645-6.837,4.995-15.477,11.708-23.95C644.905,429.087,646.008,431.075,647.095,433.065"/>
	<g>
		<defs>
			<path id="SVGID_1_" d="M604.066,392.777c-0.804,1.856-1.54,3.819-2.185,5.894c0.001,0.002,0.002,0.004,0.003,0.005
				c1.34,2.325,2.761,4.791,4.253,7.327c0.621-1.822,1.364-3.72,2.251-5.667c-0.845-1.483-1.675-2.933-2.485-4.342
				C605.279,394.896,604.666,393.824,604.066,392.777 M598.256,392.405c0.815,1.414,1.672,2.898,2.566,4.441
				C599.93,395.301,599.073,393.816,598.256,392.405 M590.999,379.878c0.894,1.561,2.045,3.556,3.41,5.928
				c1.091,1.828,2.281,3.906,3.584,6.141c0,0,0,0.001,0,0.001c0.676-1.802,1.473-3.666,2.411-5.567
				c-0.841-1.462-1.643-2.851-2.405-4.165c-0.459-0.799-0.901-1.568-1.324-2.304c-0.828,1.852-1.589,3.815-2.258,5.891
				C593.05,383.433,591.9,381.438,590.999,379.878 M589.677,368.381L589.677,368.381c-0.932,1.475-1.489,3.066-1.493,4.689
				c-0.003,1.222,0.307,2.462,1.008,3.683c0.289,0.514,0.765,1.327,1.376,2.371c0.693-1.795,1.507-3.648,2.46-5.534
				c-1.236-2.116-2.104-3.567-2.503-4.206l-0.056-0.089C590.24,368.959,589.993,368.642,589.677,368.381"/>
		</defs>
		<clipPath id="SVGID_2_">
			<use xlink:href="#SVGID_1_"  overflow="visible"/>
		</clipPath>
		<rect x="588.181" y="368.381" clip-path="url(#SVGID_2_)" fill="#116865" width="20.208" height="37.622"/>
	</g>
	<path fill="#0C4E4C" d="M600.404,386.382c-0.937,1.901-1.735,3.766-2.411,5.567c0.087,0.151,0.174,0.303,0.263,0.456
		c0.817,1.411,1.674,2.896,2.566,4.441c0.347,0.6,0.701,1.208,1.059,1.825c0.645-2.074,1.381-4.038,2.185-5.894
		c-0.525-0.918-1.039-1.816-1.541-2.695C601.794,388.801,601.087,387.568,600.404,386.382"/>
	<path fill="#0C4E4C" d="M593.027,373.59c-0.953,1.886-1.766,3.739-2.46,5.534c0.002,0.003,0.004,0.006,0.005,0.008
		c0.135,0.237,0.277,0.486,0.426,0.746c0.901,1.559,2.051,3.555,3.418,5.925c0.67-2.075,1.43-4.038,2.258-5.891
		c-0.743-1.293-1.428-2.486-2.052-3.572C594.04,375.329,593.506,374.41,593.027,373.59"/>
	<path fill="#116865" d="M615.28,421.868c0.533,0.927,1.07,1.857,1.61,2.79C616.351,423.724,615.813,422.794,615.28,421.868
		 M620.416,421.349c-0.757,1.852-1.445,3.806-2.044,5.867c0.001,0.002,0.003,0.005,0.004,0.007c1.801,3.123,3.62,6.281,5.443,9.457
		c0.524-1.861,1.172-3.829,1.974-5.87c-0.845-1.489-1.686-2.977-2.527-4.453C622.305,424.684,621.36,423.011,620.416,421.349
		 M612.102,406.843c-0.75,1.907-1.425,3.921-2.003,6.046c-0.41-0.711-0.817-1.416-1.221-2.115c0.403,0.702,0.809,1.41,1.214,2.123
		c1.418,2.432,2.876,4.951,4.352,7.509c0,0.001,0.001,0.002,0.001,0.002c0.633-1.783,1.383-3.633,2.273-5.525
		c-0.719-1.26-1.433-2.509-2.142-3.743C613.753,409.696,612.921,408.261,612.102,406.843"/>
	<path fill="#0C4E4C" d="M616.717,414.882c-0.889,1.892-1.64,3.743-2.273,5.525c0.277,0.486,0.556,0.973,0.836,1.46
		c0.533,0.926,1.07,1.856,1.61,2.79c0.492,0.85,0.987,1.703,1.481,2.558c0.599-2.061,1.287-4.016,2.044-5.867
		c-0.188-0.332-0.376-0.663-0.565-0.993C618.79,418.515,617.747,416.687,616.717,414.882"/>
	<path fill="#116865" d="M655.442,492.374c0.173,0.312,0.342,0.619,0.508,0.919C655.785,492.993,655.615,492.686,655.442,492.374
		 M654.192,480.652c-0.658,2.023-1.231,4.152-1.697,6.394c-1.001-1.785-2.061-3.687-3.186-5.687c1.121,2,2.183,3.904,3.185,5.686
		c0.923,1.653,1.786,3.198,2.556,4.62c0,0.001,0.001,0.002,0.001,0.003c0.549-1.874,1.224-3.849,2.055-5.892
		c-0.49-0.862-0.997-1.758-1.523-2.685C655.132,482.301,654.668,481.486,654.192,480.652 M646.033,466.31
		c-0.617,2.051-1.146,4.207-1.567,6.475c1.38,2.411,2.684,4.735,3.931,6.952c0.52-1.848,1.162-3.802,1.956-5.829
		c-0.597-1.056-1.208-2.134-1.833-3.228C647.711,469.256,646.878,467.795,646.033,466.31 M637.793,451.857
		c-0.597,2.085-1.103,4.277-1.496,6.58c-0.173-0.306-0.347-0.612-0.522-0.919c0.173,0.306,0.345,0.612,0.516,0.917
		c1.361,2.379,2.704,4.722,4.008,7.014c0.479-1.871,1.085-3.869,1.85-5.954c-0.749-1.315-1.51-2.649-2.284-3.999
		C639.182,454.295,638.491,453.081,637.793,451.857 M625.063,438.858c0.785,1.368,1.567,2.735,2.363,4.087
		C626.633,441.589,625.848,440.223,625.063,438.858 M629.63,437.527c-0.651,1.993-1.219,4.092-1.683,6.298
		c1.381,2.431,2.761,4.846,4.122,7.223c0.58,1.009,1.157,2.01,1.729,3.005c-0.57-0.996-1.144-1.998-1.722-3.005
		c0.456-1.897,1.044-3.932,1.798-6.064c-0.876-1.532-1.759-3.072-2.642-4.617C630.701,439.421,630.167,438.474,629.63,437.527"/>
	<path fill="#0C4E4C" d="M662.512,495.255L662.512,495.255c-0.62,1.015-1.054,2.078-1.367,3.047
		c1.129,0.216,2.352,0.556,3.651,1.002C664.681,499.127,663.875,497.688,662.512,495.255"/>
	<path fill="#116865" d="M658.446,497.898c0.01,0.019,0.02,0.038,0.03,0.057c0,0,0,0,0,0
		C658.466,497.936,658.456,497.917,658.446,497.898 M660.904,492.447c-0.604,1.773-1.142,3.63-1.599,5.574
		c0.588,0.061,1.201,0.155,1.841,0.281l0,0c0.313-0.97,0.747-2.032,1.367-3.047l0,0l0,0
		C662.037,494.429,661.499,493.49,660.904,492.447"/>
	<path fill="#0C4E4C" d="M608.389,400.337c-0.887,1.947-1.63,3.845-2.251,5.667c0,0.001,0.001,0.003,0.002,0.004
		c0.885,1.55,1.805,3.143,2.737,4.767c0.404,0.699,0.812,1.404,1.221,2.115c0.579-2.125,1.253-4.139,2.003-6.046
		c-0.309-0.535-0.616-1.067-0.921-1.597C610.233,403.577,609.301,401.938,608.389,400.337"/>
	<path fill="#0C4E4C" d="M625.792,430.81c-0.802,2.042-1.45,4.01-1.974,5.87c0.001,0.002,0.002,0.004,0.003,0.006v0.018
		c0.417,0.717,0.83,1.436,1.242,2.155c0.785,1.365,1.57,2.731,2.363,4.087c0.172,0.293,0.345,0.585,0.519,0.876
		c0.001,0.001,0.001,0.003,0.002,0.004c0.464-2.206,1.031-4.305,1.683-6.298c-0.613-1.077-1.23-2.155-1.853-3.232
		C627.112,433.135,626.452,431.972,625.792,430.81"/>
	<path fill="#0C4E4C" d="M642.15,459.495c-0.765,2.085-1.371,4.083-1.85,5.954c0,0,0,0,0,0c1.439,2.522,2.822,4.972,4.165,7.334
		c0,0.001,0.001,0.002,0.001,0.002c0.421-2.267,0.95-4.424,1.567-6.475c-0.315-0.553-0.631-1.11-0.949-1.669
		C644.122,462.959,643.146,461.243,642.15,459.495"/>
	<path fill="#0C4E4C" d="M650.354,473.907c-0.794,2.027-1.436,3.981-1.956,5.829c0.001,0.003,0.003,0.005,0.004,0.008
		c0.306,0.544,0.608,1.083,0.906,1.614c1.125,2.001,2.185,3.902,3.186,5.687c0.466-2.241,1.039-4.371,1.697-6.394
		c-0.659-1.154-1.341-2.346-2.043-3.562C651.565,476.055,650.967,474.992,650.354,473.907"/>
	<path fill="#0C4E4C" d="M657.106,485.775c-0.83,2.043-1.505,4.019-2.055,5.892c0.132,0.239,0.263,0.474,0.391,0.707
		c0.173,0.312,0.342,0.619,0.508,0.919c0.97,1.755,1.815,3.298,2.496,4.605c0.01,0.019,0.02,0.038,0.03,0.057
		c0.27,0.014,0.546,0.036,0.828,0.066c0.457-1.944,0.995-3.801,1.599-5.574C659.82,490.55,658.543,488.308,657.106,485.775"/>
	<path fill="#0C4E4C" d="M633.874,444.984c-0.754,2.132-1.342,4.168-1.798,6.064c0.577,1.007,1.152,2.009,1.722,3.005
		c0.668,1.162,1.328,2.315,1.977,3.464c0.175,0.307,0.349,0.613,0.522,0.919c0.394-2.303,0.9-4.495,1.496-6.58
		c-0.457-0.802-0.917-1.607-1.38-2.416C635.578,447.968,634.729,446.48,633.874,444.984"/>
	<path fill="#ED9D72" d="M819.95,472.586c0,0-7.666,5.605-17.934,3.399c-2.134-0.47-3.67-4.917-4.719-10.123
		c-0.217-1.031-0.397-2.115-0.579-3.182c-0.198-1.32-0.38-2.621-0.542-3.904c-0.307-2.332-0.524-4.538-0.669-6.292
		c-0.018-0.252-0.035-0.487-0.053-0.723c-0.182-2.006-0.254-3.29-0.254-3.29l16.633,0.94l1.7,0.09l0.053,0.181l0.922,3.326
		L819.95,472.586z"/>
	<path fill="#ED9D72" d="M648.865,463.859c0,0-1.822-9.935-6.433-13.925c-2.749-2.379-0.173,6.571-0.173,6.571
		s-10.967-10.648-19.92-13.19c-3.591-1.02,1.238,8.504,8.033,15.122c5.856,5.702,12.922,11.373,12.922,11.373L648.865,463.859z"/>
	<path fill="#EF5B5B" d="M652.461,470.187c0,0-0.531-6.571-2.864-8.004c-2.334-1.433-10.942,4.769-11.006,7.404
		c-0.064,2.636,7.355,8.766,7.355,8.766L652.461,470.187z"/>
	<path fill="#FFFFFF" d="M705.362,866.041c0,0,7.431,23.443,3.383,32.162c-2.426,5.225-21.613,18.243-24.392,15.873
		c-3.852-3.287,11.262-22.119,11.262-22.119l-2.857-20.262L705.362,866.041z"/>
	<path fill="#20A39F" d="M809.283,851.041c-9.112,46.823-21.387,97.406-37.928,149.924h-26.973c0,0,15.529-153.594,16.071-281.536
		c0.018-1.392,0.018-2.784,0.018-4.158c0.037-23.321-0.434-45.703-1.608-66.077c-0.706-12.257-0.634-22.869,0.053-32.034
		c0.109-1.356,0.217-2.694,0.344-3.995c8.677-84.788,75.315-36.754,75.315-36.754S840.216,692.022,809.283,851.041z"/>
	<path fill="#187A77" d="M799.574,684.339c-11.461,11.137-25.4,23.467-39.121,35.091c0.018-1.392,0.018-2.784,0.018-4.158
		c0.037-23.321-0.434-45.703-1.608-66.077c-0.706-12.257-0.634-22.869,0.053-32.034c0.109-1.356,0.217-2.694,0.344-3.995
		c6.31-2.405,12.221-3.76,17.591-3.851C846.905,608.03,834.105,650.695,799.574,684.339z"/>
	<path fill="#20A39F" d="M687.877,881.44c0,0-59.03-156.159-49.377-174.33c16.405-30.878,116.382-110.164,156.131-101.078
		c56.472,12.907,37.442,49.403,2.841,73.253c-36.242,24.979-94.832,55.649-94.832,55.649s15.321,52.16,8.165,141.183L687.877,881.44
		z"/>
	<path fill="#EF5B5B" d="M832.199,512.087c4.038,20.251,5.342,41.151,8.121,61.778c2.661,19.749,0.039,38.275-2.094,58.119
		c-0.217,2.025-0.433,4.104-1.356,5.93c-2.712,5.477-9.996,6.49-16.106,6.454c-15.151-0.09-30.281-2.224-44.854-6.345
		c-10.051-2.839-23.032-3.327-29.197-12.981c-1.518-2.386-2.06-5.261-2.403-8.081c-0.779-6.455-0.923-12.691-0.886-19.001
		c0.018-3.254,0.055-6.508,0.09-9.835c0.072-6.816-0.217-13.649,0.56-20.411c2.514-21.73,13.668-43.424,22.201-63.328
		c3.128-7.304,6.382-14.59,10.776-21.208c2.479-3.735,5.065-7.452,8.247-10.632c3.775-3.771,6.204-4.37,11.433-5.211
		c5.941-0.957,11.924-1.923,17.579-3.981c5.944-2.163,6.929,5.412,8.051,9.294c2.892,10.008,5.531,19.928,7.833,30.041
		C830.904,505.813,831.574,508.946,832.199,512.087z"/>
	<path fill="#D77845" d="M816.839,448.434c-0.614,1.627-1.409,3.145-2.332,4.573c-3.254,5.171-8.081,8.932-12.365,11.137
		c-1.645,0.868-3.271,1.428-4.844,1.718c-0.217-1.031-0.397-2.115-0.579-3.182c-0.198-1.32-0.38-2.621-0.542-3.904
		c-0.307-2.332-0.524-4.538-0.669-6.292c-0.018-0.252-0.035-0.487-0.053-0.723c3.886,1.32,6.615,1.971,16.378-2.35
		c0.669-0.307,1.391-0.633,2.133-0.976C814.888,447.999,815.882,448.054,816.839,448.434z"/>
	<path fill="#9E3790" d="M430.403,207.696c0,0,0.157,0.123,0.387,0.301c0.761,0.589,1.513,1.171,2.255,1.744
		c6.172,4.799,22.852,17.997,45.254,38.933c22.208,21.095,50.388,49.77,78.415,85.613c0,0-4.442-7.859-12.154-19.707
		c-7.694-11.856-18.679-27.684-31.267-43.804c-12.549-16.148-26.761-32.519-39.866-46.129c-3.328-3.356-6.532-6.586-9.565-9.645
		c-3.033-3.069-6.103-5.755-8.852-8.343c-2.782-2.553-5.33-4.919-7.666-6.973c-2.39-1.994-4.516-3.738-6.327-5.188
		c-3.411-2.706-6.756-5.159-10.012-7.106c-3.305-1.887-6.414-3.393-9.159-4.451c-5.492-2.118-9.512-2.435-10.845-0.514
		c-1.333,1.921,0.244,5.697,3.799,10.197c1.781,2.251,4.061,4.686,6.739,7.173C424.171,202.35,427.113,205.086,430.403,207.696z"/>
	<path fill="#9E3790" d="M528.998,146.958c0,0-0.002,0.184-0.002,0.451c0.002,0.883,0.004,1.757,0.005,2.617
		c-0.048,1.8,0.125,4.352,0.337,7.607c0.217,3.255,0.443,7.218,0.819,11.806c0.556,4.56,1.19,9.758,1.894,15.536
		c0.486,2.861,0.996,5.866,1.529,9.007c0.567,3.131,1.036,6.418,1.817,9.775c2.708,13.509,6.709,28.829,12.053,45.329
		c5.409,16.472,12.12,34.185,20.871,52.114c0,0-2.475-7.513-5.607-19.429c-3.148-11.909-6.928-28.225-9.917-45.619
		c-3.021-17.389-5.208-35.836-6.202-51.834c-0.171-3.997-0.334-7.844-0.489-11.488c-0.076-1.818-0.15-3.585-0.221-5.295
		c0.002-1.708,0.002-3.359,0.004-4.946c-0.026-3.169-0.049-6.084-0.069-8.691c-0.092-2.609,0.124-4.891,0.111-6.828
		c0.062-3.628-0.12-7.087-0.5-10.258c-0.226-3.153-0.583-6.013-1.167-8.461c-1.148-4.887-3.014-8.13-5.337-8.402
		c-2.322-0.272-4.671,2.537-6.599,7.434c-0.952,2.444-1.847,5.406-2.486,8.726C529.358,139.426,529.06,143.099,528.998,146.958z"/>
	<path fill="#9E3790" d="M613.877,170.298c0,0-0.065,0.171-0.162,0.421c-0.314,0.825-0.625,1.641-0.93,2.446
		c-0.689,1.664-1.441,4.108-2.408,7.224c-0.96,3.118-2.168,6.899-3.459,11.318c-1.111,4.457-2.378,9.538-3.787,15.186
		c-0.57,2.845-1.17,5.833-1.795,8.957c-0.591,3.127-1.328,6.365-1.801,9.779c-2.304,13.584-4.048,29.321-4.961,46.641
		c-0.84,17.317-0.909,36.259,0.847,56.131c0,0,0.378-7.9,1.716-20.149c1.319-12.246,3.628-28.834,7.058-46.146
		c3.4-17.32,7.955-35.329,12.75-50.624c1.271-3.793,2.495-7.444,3.653-10.903c0.581-1.724,1.144-3.4,1.69-5.023
		c0.611-1.595,1.202-3.136,1.771-4.618c1.11-2.969,2.133-5.698,3.045-8.141c0.849-2.469,1.866-4.523,2.548-6.336
		c1.354-3.366,2.422-6.661,3.203-9.758c0.918-3.025,1.608-5.823,1.937-8.318c0.676-4.975,0.094-8.67-1.977-9.755
		s-5.27,0.697-8.822,4.581c-1.764,1.942-3.658,4.387-5.443,7.259C616.908,163.393,615.316,166.716,613.877,170.298z"/>
	<path fill="#9E3790" d="M415.125,318.785c0,0,0.139,0.009,0.341,0.023c0.667,0.043,1.326,0.086,1.977,0.128
		c1.359,0.042,3.294,0.263,5.77,0.558c2.48,0.271,5.498,0.601,9.006,0.984c3.506,0.53,7.505,1.133,11.95,1.804
		c4.424,0.853,9.329,1.679,14.604,2.796c10.561,2.202,22.669,5.254,35.933,9.167c13.245,3.966,27.674,8.716,42.652,14.845
		c0,0-5.342-3.559-14.089-8.536c-8.736-4.987-20.887-11.371-34.252-17.26c-13.343-5.918-27.919-11.28-40.975-15.022
		c-3.275-0.884-6.453-1.671-9.463-2.435c-1.508-0.366-2.964-0.77-4.398-1.066c-1.439-0.278-2.83-0.546-4.167-0.804
		c-2.684-0.49-5.152-0.941-7.36-1.344c-2.21-0.403-4.209-0.513-5.877-0.693c-3.141-0.28-6.154-0.308-8.893-0.118
		c-2.758,0.332-5.242,0.91-7.309,1.621c-4.142,1.434-6.603,3.493-6.573,5.83c0.032,2.338,2.491,4.517,6.303,6.142
		c1.91,0.819,4.165,1.474,6.663,1.985C409.472,318.045,412.219,318.529,415.125,318.785z"/>
	<path fill="#9E3790" d="M680.488,244.087l-0.251,0.114c-0.484,0.237-0.96,0.479-1.421,0.732c-1.947,0.999-5.584,2.868-10.222,6.071
		c-4.647,3.168-10.294,7.682-16.016,13.783c-5.71,6.1-11.428,13.82-16.239,22.968c-4.774,9.135-8.85,19.674-10.794,31.164
		c0,0,1.774-4.259,5.397-10.373c3.589-6.119,9.113-14.034,15.928-21.323c6.776-7.331,14.848-13.907,22.374-18.477
		c7.464-4.704,14.314-7.434,18.14-9.19c3.625-1.571,6.645-3.681,8.737-5.951c2.092-2.217,3.195-4.756,2.597-7.016
		c-0.597-2.26-2.862-3.799-6.216-4.4C689.178,241.633,684.815,242.202,680.488,244.087z"/>
	<path fill="#9E3790" d="M459.671,417.378l0.136-0.186c0.295-0.345,0.577-0.693,0.844-1.045c1.144-1.445,3.241-4.161,6.538-7.637
		c3.271-3.496,7.743-7.764,13.628-12.223c5.888-4.443,13.23-9.028,22.001-13.113c8.773-4.047,18.919-7.795,30.313-9.969
		c0,0-4.583-0.469-11.839-0.117c-7.244,0.327-17.164,1.572-27.46,4.55c-10.294,2.912-20.894,7.692-29.33,13.359
		c-8.536,5.539-14.77,11.827-17.96,15.683c-2.95,3.684-4.64,7.746-4.972,11.1c-0.297,3.394,0.597,5.983,2.622,7.151
		c2.027,1.167,4.765,0.766,7.452-0.674C454.38,422.832,457.207,420.467,459.671,417.378z"/>
	<path fill="#FFFFFF" d="M368.695,245.498l0.168,0.043c0.328,0.09,0.655,0.174,0.98,0.25c5.376,1.36,29.212,7.23,60.526,12.567
		c0,0-47.165-17.594-59.392-21.014c-5.732-1.605-10.893-1.08-11.523,1.172C358.824,240.767,362.961,243.893,368.695,245.498z"/>
	<path fill="#FFFFFF" d="M353.865,277.477l0.099-0.01c0.192-0.014,0.383-0.034,0.57-0.059c3.134-0.34,16.994-1.997,34.692-6.433
		c0,0-28.703-2.408-35.901-1.948c-3.376,0.215-5.99,2.282-5.84,4.616C347.633,275.976,350.489,277.693,353.865,277.477z"/>
	<path fill="#FFFFFF" d="M364.562,367.952l0.099-0.011c0.192-0.016,0.383-0.036,0.57-0.064c3.132-0.362,16.979-2.119,34.644-6.685
		c0,0-28.721-2.199-35.913-1.687c-3.374,0.24-5.974,2.326-5.808,4.658S361.19,368.192,364.562,367.952z"/>
	<path fill="#FFFFFF" d="M372.877,412.66l0.161-0.093c0.314-0.179,0.623-0.361,0.923-0.546c5.063-3.006,27.404-16.443,55.037-35.756
		c0,0-48.513,22.407-60.268,29.013c-5.514,3.098-9.053,7.262-7.908,9.301C361.968,416.617,367.366,415.758,372.877,412.66z"/>
	<path fill="#FFFFFF" d="M437.638,146.857l0.127,0.118c0.245,0.237,0.493,0.467,0.74,0.688c4.071,3.766,22.197,20.322,47.145,39.984
		c0,0-33.006-38.009-42.108-46.861c-4.267-4.151-9.05-6.158-10.679-4.482C431.231,137.981,433.371,142.705,437.638,146.857z"/>
	<path fill="#FFFFFF" d="M454.377,95.162l0.078,0.155c0.152,0.305,0.305,0.606,0.463,0.898c2.548,4.926,13.961,26.66,30.733,53.636
		c0,0-18.11-46.969-23.657-58.389c-2.601-5.356-6.416-8.87-8.518-7.848C451.37,84.636,451.775,89.806,454.377,95.162z"/>
	<path fill="#FFFFFF" d="M582.372,89.823l-0.011,0.174c-0.021,0.34-0.039,0.677-0.049,1.009c-0.26,5.539-1.262,30.068-0.249,61.816
		c0,0,7.839-49.725,8.755-62.388c0.429-5.939-1.114-10.889-3.446-11.058C585.039,79.207,582.801,83.885,582.372,89.823z"/>
	<path fill="#FFFFFF" d="M615.568,85.634l-0.035,0.102c-0.076,0.198-0.145,0.395-0.207,0.592
		c-1.121,3.255-5.944,17.715-10.001,37.172c0,0,15.266-27.448,18.131-34.785c1.344-3.441,0.667-6.92-1.51-7.771
		C619.768,80.093,616.912,82.193,615.568,85.634z"/>
	<path fill="#FFFFFF" d="M498.268,91.064l0.002,0.109c-0.005,0.211-0.004,0.42,0.005,0.627c0.046,3.442,0.403,18.68,3.167,38.364
		c0,0,5.078-30.995,5.291-38.869c0.101-3.692-1.714-6.738-4.052-6.801C500.344,84.429,498.369,87.372,498.268,91.064z"/>
	<path fill="#FFFFFF" d="M711.972,153.434l-0.108,0.137c-0.215,0.265-0.424,0.53-0.623,0.795
		c-3.411,4.372-18.389,23.822-35.889,50.331c0,0,35.106-36.077,43.164-45.889c3.778-4.601,5.376-9.534,3.57-11.018
		C720.278,146.306,715.75,148.833,711.972,153.434z"/>
	<path fill="#FFFFFF" d="M733.463,187.196l-0.085,0.041c-0.169,0.075-0.337,0.154-0.498,0.24
		c-2.724,1.328-14.724,7.349-29.257,17.22c0,0,26.832-6.977,33.198-9.727c2.985-1.29,4.656-4.076,3.729-6.222
		C739.621,186.602,736.45,185.907,733.463,187.196z"/>
	<path fill="#A83119" d="M802.486,491.388c-0.162,30.3-14.427,60.147-33.463,83.252c-7.304,8.877-15.838,17.192-25.599,23.321
		c0.018-3.254,0.055-6.508,0.09-9.835c0.072-6.816-0.217-13.649,0.56-20.411c2.514-21.73,13.668-43.424,22.201-63.328
		c3.128-7.304,6.382-14.59,10.775-21.206c2.043-3.056,6.617-6.907,9.601-10.829c2.729-0.072,5.424,0.488,7.791,1.88
		c5.224,3.074,7.666,9.365,8.008,15.493C802.486,490.285,802.486,490.828,802.486,491.388z"/>
	<path fill="#EF5B5B" d="M804.987,489.645c0.381-6.119-1.299-12.653-6.13-16.319c-4.897-3.718-11.913-3.54-17.563-1.11
		c-5.65,2.431-10.227,6.766-14.623,11.067c-15.499,15.165-31.775,29.512-47.359,44.64c-8.123,7.885-13.271-4.939-18.882-10.53
		c-6.734-6.711-13.34-13.55-20.026-20.311c-6.391-6.464-12.794-12.949-19.547-19.04c-3.211-2.896-7.915-8.283-12.471-9.007
		c-9.662-1.537-6.377,49.905,1.015,73.485c5.907,18.838,24.944,54.357,56.128,54.357c21.839,0,40.971-12.208,56.255-26.839
		c21.625-20.702,39.321-48.666,43.049-78.743C804.901,490.75,804.954,490.2,804.987,489.645z"/>
	<path fill="#EF5B5B" d="M850.051,424.242c-10.035-4.083-14.514-10.588-19.939-18.641c-5.427-8.053-13.924-11.564-22.879-11.682
		c-8.954-0.119-20.509,7.986-25.278,17.703l24.341,4.49l13.065,13.351l3.22,7.727c0,0,10.893-6.471,6.485-14.33
		C829.065,422.86,840.018,433.051,850.051,424.242z"/>
	<path fill="#FFFFFF" d="M845.734,423.188c0,4.204,3.409,7.613,7.613,7.613c4.205,0,7.614-3.408,7.614-7.613
		s-3.409-7.613-7.614-7.613C849.144,415.576,845.734,418.984,845.734,423.188z"/>
	<path fill="#ED9D72" d="M798.508,462.282c-10.738,2.712-18.513-4.321-19.922-14.373c-1.411-10.069,2.115-13.378,3.037-17.121
		c0.452-1.808,0.342-3.995,0.38-6.255c0-2.44,0.18-4.953,1.374-7.123c1.61-2.91,3.346-4.827,4.954-6.11
		c3.127-2.513,5.713-2.513,5.713-2.513c7.339-1.844,20.97,2.007,25.327,19.218C824.759,449.355,809.228,459.57,798.508,462.282z"/>
	<path fill="#D77845" d="M814.309,429.903c-0.976,3.254-2.459,6.381-4.375,9.184c-0.417-3.362-0.832-6.743-1.248-10.124
		c-0.072-0.669-0.162-1.374-0.56-1.916c-0.759-1.03-2.26-1.085-3.563-1.085c-5.424-0.072-10.828-1.284-15.746-3.543
		c-0.614-0.289-1.284-0.578-1.916-0.361c-0.397,0.126-0.687,0.452-1.012,0.741c-1.176,1.067-2.549,1.609-3.888,1.735
		c0-2.44,0.18-4.953,1.374-7.123c1.61-2.91,3.346-4.827,4.954-6.11c3.723-0.235,7.484,0.343,10.955,1.718
		c4.611,1.844,8.57,4.972,12.348,8.189c1.193,1.013,2.422,2.097,2.947,3.562C815.176,426.414,814.816,428.24,814.309,429.903z"/>
	<path fill="#520747" d="M791.241,405.647c-0.667,0.803-1.209,1.706-1.587,2.686c-3.16-1.565-7.203-1.15-9.98,1.022
		c-2.779,2.173-4.154,5.997-3.397,9.442c0.524,2.381,2.673,4.996,5.365,4.554c2.472-0.407,4.742-3.208,6.836-4.514
		c0.348-0.217,0.726-0.424,1.135-0.424c0.551,0,1.024,0.368,1.46,0.705c3.64,2.809,8.029,4.638,12.588,5.243
		c3.476,0.463,8.04,1.191,7.955,5.783c-0.069,3.664-3.125,5.731-2.016,9.977c0,0,4.338-8.683,8.036-3.539
		c2.98,4.144-4.571,15.7-4.571,15.7c4.544-0.997,7.773-6.229,9.41-10.112c1.065-2.523,1.389-5.283,2.751-7.685
		c1.245-2.193,1.954-3.944,1.674-6.664c-0.198-1.921-1.079-4.303-2.625-5.571c-0.477-0.391-3.918-2.182-4.112-0.82
		c0.457-3.195-0.035-6.696-2.142-9.14c-2.108-2.445-6.087-3.379-8.677-1.453c-0.517-4.501-4.37-8.4-8.863-8.972
		C797.029,401.426,793.452,402.983,791.241,405.647z"/>
	<path fill="#187A77" d="M809.283,851.041c-9.112,46.823-21.387,97.406-37.928,149.924h-16.108
		c0.524-4.031,1.645-8.063,2.892-11.335c16.542-42.99,33.283-85.276,47.926-129.061
		C807.132,857.386,808.199,854.222,809.283,851.041z"/>
	<path fill="#20A39F" d="M357.579,311.885c3.31,2.845,3.69,7.835,0.844,11.147c-2.844,3.311-7.835,3.69-11.147,0.845
		c-3.31-2.845-3.69-7.835-0.844-11.146C349.276,309.419,354.267,309.04,357.579,311.885z"/>
	<path fill="#20A39F" d="M562.959,94.85c3.312,2.845,3.69,7.836,0.846,11.147c-2.844,3.311-7.835,3.69-11.147,0.845
		c-3.31-2.844-3.69-7.835-0.844-11.146C554.657,92.384,559.648,92.006,562.959,94.85z"/>
	<path fill="#20A39F" d="M361.998,139.708c3.312,2.845,3.692,7.835,0.846,11.147c-2.844,3.311-7.835,3.69-11.147,0.845
		c-3.31-2.844-3.69-7.835-0.844-11.146C353.697,137.242,358.688,136.864,361.998,139.708z"/>
	<path fill="#20A39F" d="M763.516,222.96c3.312,2.845,3.69,7.835,0.846,11.146c-2.844,3.312-7.835,3.691-11.147,0.846
		c-3.312-2.845-3.69-7.835-0.846-11.147C755.215,220.494,760.204,220.115,763.516,222.96z"/>
	<path fill="#20A39F" d="M660.501,110.737c3.312,2.845,3.69,7.835,0.846,11.147c-2.844,3.311-7.835,3.69-11.147,0.845
		c-3.31-2.845-3.69-7.835-0.844-11.147C652.2,108.27,657.191,107.892,660.501,110.737z"/>
	<path fill="#20A39F" d="M678.369,315.407c1.938,1.666,2.161,4.589,0.494,6.529c-1.667,1.94-4.589,2.162-6.529,0.495
		s-2.161-4.589-0.494-6.529C673.506,313.962,676.429,313.741,678.369,315.407z"/>
	<path fill="#20A39F" d="M317.805,193.211c1.94,1.667,2.163,4.589,0.496,6.529c-1.667,1.94-4.59,2.162-6.529,0.495
		c-1.94-1.666-2.163-4.589-0.496-6.529C312.943,191.766,315.867,191.544,317.805,193.211z"/>
	<path fill="#20A39F" d="M378.46,178.11c1.94,1.667,2.161,4.589,0.496,6.53c-1.667,1.939-4.59,2.161-6.53,0.495
		c-1.939-1.667-2.161-4.59-0.494-6.53C373.598,176.666,376.519,176.444,378.46,178.11z"/>
	<path fill="#20A39F" d="M409.702,134.636c1.94,1.667,2.163,4.589,0.496,6.53c-1.667,1.939-4.59,2.161-6.529,0.495
		c-1.94-1.667-2.163-4.59-0.496-6.53S407.763,132.97,409.702,134.636z"/>
	<path fill="#20A39F" d="M691.812,107.451c1.94,1.667,2.161,4.589,0.494,6.53c-1.665,1.939-4.589,2.161-6.529,0.494
		c-1.938-1.666-2.161-4.589-0.494-6.529C686.95,106.007,689.871,105.786,691.812,107.451z"/>
	<path fill="#20A39F" d="M565.455,350.209c1.94,1.666,2.163,4.589,0.496,6.529s-4.59,2.161-6.529,0.495
		c-1.94-1.667-2.163-4.589-0.496-6.53C560.593,348.764,563.517,348.542,565.455,350.209z"/>
	<path fill="#20A39F" d="M533.368,51.118c1.938,1.667,2.161,4.589,0.494,6.53c-1.667,1.939-4.588,2.161-6.529,0.494
		c-1.94-1.666-2.161-4.589-0.494-6.529C528.504,49.673,531.427,49.452,533.368,51.118z"/>
	<path fill="#20A39F" d="M448.272,267.462c1.94,1.667,2.161,4.589,0.494,6.529c-1.665,1.94-4.588,2.162-6.529,0.495
		c-1.938-1.666-2.161-4.589-0.494-6.529C443.41,266.017,446.332,265.796,448.272,267.462z"/>
	<path fill="#20A39F" d="M355.417,380.03c1.938,1.666,2.161,4.589,0.494,6.529c-1.667,1.939-4.59,2.162-6.529,0.495
		c-1.94-1.667-2.161-4.589-0.496-6.53C350.553,378.585,353.477,378.363,355.417,380.03z"/>
</g>
</svg>
