<?xml version="1.0" encoding="utf-8"?>
<!-- Designed by Vexels.com - 2020 All Rights Reserved - https://vexels.com/terms-and-conditions/  -->
<svg version="1.1" id="Layer_1" xmlns="http://www.w3.org/2000/svg" xmlns:xlink="http://www.w3.org/1999/xlink" x="0px" y="0px"
	 viewBox="0 0 1200 1200" enable-background="new 0 0 1200 1200" xml:space="preserve">
<g>
	<path fill="#520747" d="M466.797,1019.791c-0.615,20.439-13.433,42.945-60.22,57.248c-16.144,4.973-36.325,8.912-61.446,11.495
		c-97.897,9.977-204.226,7.62-237.064,2.067c-29.577-5.006-66.643-37.067-36.227-74.135c6.587-8.041,11.916-13.109,16.207-16.144
		c15.501-10.978,17.535,4.875,17.535,4.875c35.839-17.5,155.405-41.652,230.798-41.233
		C411.809,964.384,467.636,992.28,466.797,1019.791z"/>
	<path fill="#23001E" d="M406.577,1077.038c-16.144,4.973-36.325,8.912-61.446,11.495c-97.897,9.977-204.226,7.62-237.064,2.067
		c-29.577-5.006-66.643-37.067-36.227-74.135c6.587-8.041,11.916-13.109,16.207-16.144c0.164,0.678,0.356,1.387,0.517,2.098
		c3.683,14.401,10.529,23.539,23.056,32.612c22.117,16.015,48.692,24.667,75.295,30.804
		C258.696,1082.366,332.764,1081.946,406.577,1077.038z"/>
	<path fill="#187A77" d="M197.182,746.282c-0.939-3.741-1.906-2.762-1.782-1.782c0.122,0.979,1.335,1.959,4.753-1.774
		c1.089-1.187-4.004,0.362-8.594,1.908c-8.924,3.01-15.951,6.02,27.968-11.057c5.781-2.248,11.614-0.051,17.359,2.146
		c4.422,1.691,8.794,3.382,13.053,3.044c26.458-2.083,80.374,17.762,112.663,30.596c11.078,4.402,23.542-9.909,32.821-18.443
		c11.141-10.247,22.026-20.613,33.061-30.905c10.558-9.84,21.13-19.711,32.425-29.19c5.369-4.51,13.016-12.531,21.288-14.73
		c17.53-4.66,21.324,60.096,12.201,91.458c-7.289,25.054-35.615,74.546-93.155,83.431c-40.298,6.221-77.94-3.473-108.942-17.27
		c-43.87-19.522-81.88-49.175-94.52-85.429C197.552,747.629,197.353,746.96,197.182,746.282"/>
	<path fill="#9E3790" d="M437.604,724.77c-18.878,19.264,9.419,51.825,29.994,28.423c20.197-22.971,0.728-40.213,0.728-40.213
		S444.932,717.291,437.604,724.77"/>
	<path fill="#520747" d="M648.227,546.18c-2.195,2.487-8.008,9.039-16.274,18.404c-8.005,9.009-18.242,20.534-29.739,33.549
		c-5.164,5.78-10.492,11.818-16.014,18.049c-9.655,10.913-19.762,22.343-29.836,33.774c-6.036,6.845-12.041,13.691-17.951,20.406
		c-10.56,11.98-20.666,23.57-29.899,34.097v0.033c-3.648,4.197-7.136,8.233-10.399,12.011c-8.005,9.235-14.852,17.209-20.016,23.377
		c-4.652,5.489-7.911,9.493-9.464,11.625l-0.321,0.451c0.192-0.872,0.321-2.099,0.357-3.585v-0.742l-0.036-0.709
		c-0.128-2.713-0.642-6.007-1.905-9.202c-0.646-1.583-1.453-3.164-2.452-4.65c-4.232-5.975-12.174-10.43-26.67-8.3
		c0,0,6.81-8.007,17.79-20.89c6.845-8.007,15.271-17.921,24.733-29.029c5.619-6.617,11.624-13.657,17.823-20.955
		c8.04-9.428,16.47-19.309,24.961-29.252c7.198-8.428,14.498-16.951,21.599-25.314c8.621-10.074,17.019-19.924,24.895-29.124
		c7.073-8.267,13.722-15.984,19.666-22.959c11.074-12.883,19.825-23.119,24.895-28.899c1.968-2.227,3.357-3.81,4.099-4.617
		c7.684-8.395,25.345,2.002,31.512,14.628C652.52,534.393,652.845,540.949,648.227,546.18"/>
	<path fill="#9E3790" d="M631.943,564.572c-7.981,9.005-18.248,20.562-29.744,33.565c0.715-15.705-0.851-37.841-13.113-50.888
		c11.05-12.885,19.821-23.119,24.873-28.895C620.832,524.815,631.653,539.021,631.943,564.572"/>
	<path fill="#9E3790" d="M586.203,616.18c-9.647,10.917-19.759,22.341-29.833,33.762c0.828-15.224-0.4-37.083-11.84-50.62
		c8.615-10.064,17.014-19.926,24.895-29.121C576.383,577.237,586.209,591.52,586.203,616.18"/>
	<path fill="#9E3790" d="M538.402,670.364c-10.533,11.99-20.668,23.576-29.882,34.087c0.948-14.746,0.079-36.522-10.577-50.542
		c8.064-9.43,16.494-19.325,24.954-29.255C529.816,632.208,538.675,646.534,538.402,670.364"/>
	<path fill="#9E3790" d="M468.622,746.922c-0.11-14.604-2.863-32.035-13.224-43.029c6.831-8.019,15.258-17.947,24.733-29.051
		c6.465,5.991,16.52,18.874,17.983,41.661c-15.15,17.457-26.223,30.504-29.488,35.008c0.022-1.036,0.04-2.071,0.028-3.136v-0.744
		L468.622,746.922"/>
	<path fill="#2A042D" d="M508.273,684.296c-1.006,1.114-2.002,2.217-2.988,3.308c-3.597,3.974-7.049,7.798-10.332,11.44
		c1.582,5.03,2.737,10.824,3.163,17.459l0,0c3.264-3.778,6.751-7.814,10.399-12.011v-0.033l0,0c1.823-2.079,3.679-4.198,5.567-6.354
		c-1.887,2.154-3.742,4.27-5.561,6.346C508.9,698.544,508.988,691.508,508.273,684.296 M556.061,631.377
		c-1.643,1.814-3.285,3.628-4.924,5.439c-4.817,5.328-9.624,10.657-14.368,15.909c1.086,5.193,1.709,11.052,1.633,17.64
		c-1.005,1.145-2.006,2.285-3.004,3.421c1-1.138,2.005-2.278,3.014-3.423c5.91-6.715,11.915-13.561,17.951-20.406
		c2.391-2.713,4.785-5.427,7.173-8.134c-2.387,2.702-4.777,5.41-7.166,8.119C556.672,644.394,556.7,637.963,556.061,631.377
		 M649.582,528.357c-0.258,0.291-0.549,0.579-0.84,0.902c-4.082,4.401-10.417,11.363-18.356,20.102
		c0.924,4.55,1.494,9.607,1.558,15.211c-7.981,9.005-18.248,20.562-29.744,33.565c0.24-5.256,0.223-11.232-0.364-17.346
		c-0.281,0.312-0.564,0.624-0.847,0.938c-5.263,5.805-10.749,11.874-16.375,18.097c0.998,4.854,1.592,10.291,1.59,16.352
		c5.52-6.229,10.848-12.266,16.01-18.044c11.497-13.015,21.733-24.54,29.739-33.549c8.267-9.365,14.079-15.917,16.274-18.404
		c2.454-2.779,3.512-5.932,3.524-9.182C651.762,534.13,650.96,531.187,649.582,528.357L649.582,528.357"/>
	<path fill="#52235B" d="M630.386,549.362c-2.606,2.869-5.384,5.929-8.313,9.152c-6.154,6.776-12.997,14.269-20.238,22.277
		c0.587,6.115,0.604,12.09,0.364,17.346c11.497-13.003,21.763-24.56,29.744-33.565C631.88,558.969,631.31,553.912,630.386,549.362"
		/>
	<path fill="#52235B" d="M584.613,599.826c-3.387,3.747-6.825,7.549-10.294,11.383c-6.008,6.645-12.137,13.409-18.258,20.168
		c0.639,6.587,0.611,13.017,0.309,18.565c2.389-2.709,4.779-5.417,7.166-8.119c7.674-8.695,15.299-17.318,22.663-25.641
		c0.002-0.001,0.003-0.003,0.004-0.005C586.205,610.117,585.611,604.679,584.613,599.826"/>
	<path fill="#52235B" d="M536.769,652.724c-4.195,4.644-8.34,9.228-12.401,13.699c-5.54,6.161-10.941,12.162-16.095,17.872
		c0.716,7.213,0.628,14.249,0.248,20.156c1.819-2.075,3.673-4.192,5.561-6.346c6.76-7.721,13.916-15.907,21.317-24.32
		c0.998-1.137,1.999-2.277,3.004-3.421C538.478,663.777,537.855,657.917,536.769,652.724"/>
	<path fill="#2A042D" d="M498.115,716.503c-8.004,9.222-14.869,17.213-20.046,23.365c0.01,0.004,0.021,0.008,0.031,0.013
		C483.263,733.712,490.11,725.737,498.115,716.503"/>
	<path fill="#52235B" d="M464.278,733.068c-2.97,3.229-4.586,5.036-4.586,5.036c2.232-0.283,4.29-0.393,6.218-0.393
		c0.276,0,0.549,0.002,0.82,0.006C466.084,736.134,465.277,734.553,464.278,733.068L464.278,733.068"/>
	<path fill="#2A042D" d="M467.138,729.88c-1.064,1.182-2.02,2.247-2.861,3.188l0,0l0,0c1,1.486,1.806,3.067,2.452,4.65l0,0
		c0.496,0.01,0.982,0.029,1.458,0.055C467.953,735.155,467.611,732.508,467.138,729.88"/>
	<path fill="#52235B" d="M494.952,699.044c-6.001,6.657-11.44,12.705-16.177,17.944c-4.626,5.126-8.575,9.491-11.637,12.892
		c0.472,2.628,0.814,5.275,1.05,7.893c3.889,0.215,7.151,0.952,9.88,2.095c5.178-6.151,12.043-14.143,20.046-23.365l0,0
		C497.689,709.868,496.534,704.073,494.952,699.044"/>
	<path fill="#D77845" d="M522.624,662.108c0,0,8.473-17.188,18.957-22.082c6.25-2.915-3.09,12.083-3.09,12.083
		s25.535-13.75,43.189-13.75c7.082,0-6.666,14.878-22.498,23.436c-13.641,7.372-29.476,14.062-29.476,14.062L522.624,662.108z"/>
	<path fill="#D77845" d="M271.015,600.967c10.935,11.873,6.874,25.935,8.75,34.059c1.873,8.124,17.497,21.562,10.623,44.684
		s-48.433,39.371-68.431,15.624C201.96,671.586,271.015,600.967,271.015,600.967z"/>
	<path fill="#20A39F" d="M527.692,750.225c-6.735,43.706-43.814,133.308-129.637,133.308c-54.342,0-96.642-25.639-111.525-20.472
		l-0.066,0.033c-1.29,0.451-2.355,1.162-3.229,2.13c-0.29,0.323-0.549,0.68-0.807,1.066v0.033
		c-2.39,3.617-4.068,10.655-5.745,19.438c-5.49,28.801-10.752,76.653-39.749,86.856c-8.394,2.97-19.73,6.168-32.645,9.847
		c-45.04,12.786-109.296,30.966-135.773,62.318c-20.439,24.152-25.024-19.986-8.362-52.083
		c16.693-32.062,32.516-57.505,40.846-89.987c4.295-16.758,10.588-44.946,20.083-71.713l0.032-0.129
		c8.911-25.088,20.635-48.982,36.132-61.058c32.062-24.991,22.277-56.472,55.73-69.26c0,0,39.037-10.008,53.727,0
		c14.694,9.978-20.921,35.939-14.981,44.979c1.712,2.616,19.988,0.711,34.679,5.941c36.356,13.013,90.762,35.874,99.351,34.389
		c12.108-2.1,110.62-115.207,128.963-118.112C528.467,665.551,534.392,706.749,527.692,750.225z"/>
	<path fill="#20A39F" d="M512.78,671.794c0,0,4.377-11.717,9.374-13.124c5.001-1.406,17.5,14.374,16.248,19.217
		c-1.249,4.843-17.967,12.186-17.967,12.186L512.78,671.794z"/>
	<path fill="#520747" d="M280.91,628.354c-8.558,23.28-27.704,19.987-27.704,19.987c-14.432-2.453-11.657,13.497-8.104,21.052
		c4.099,8.685,11.689,15.725,12.042,25.831c0.325,8.879-3.617,18.178-11.235,23.021c-6.136,3.908-14.111,4.716-20.89,2.132
		c1.58,6.199-0.454,13.206-5.102,17.598c-4.651,4.424-11.724,6.07-17.857,4.132c2.002,2.292,3.519,4.812,4.648,7.427
		c5.651,13.076,1.034,29.381-7.618,40.49c-5.427,6.942-15.791,9.493-24.185,9.524c-2.261,0-26.767-6.07-25.024-8.137
		c-8.652,10.139-24.992,12.592-36.227,5.457c-8.911-5.682-13.433-16.595-12.528-26.961c0.419-5.424,2.355-10.686,5.909-14.949
		c4.455-5.424,12.301-10.106,19.405-9.847c-2.551-2.97-6.038-5.941-7.782-9.59c-5.036-8.621-1.195-20.89,3.163-29.189
		c8.331-15.788,25.639-26.38,43.429-26.638c-3.55-12.818,6.653-27.606,19.922-28.801c-0.807-12.01,0.454-24.346,5.49-35.291
		c4.392-9.559,12.108-18.309,21.956-22.474c7.46-3.131,16.308-0.709,23.088-3.1C272.579,577.112,289.852,603.977,280.91,628.354z"/>
	<path fill="#FFBA4A" d="M812.769,179.231c0,0-0.107,0.342-0.259,0.84c-0.508,1.649-1.009,3.281-1.504,4.887
		c-4.156,13.395-15.81,49.732-37.053,100.35c-21.621,50.387-52.425,115.38-95.608,184.129c0,0,10.097-12.556,24.652-33.148
		c14.58-20.567,33.578-49.195,52.021-80.637c18.512-31.395,36.318-65.656,50.319-96.229c3.39-7.697,6.656-15.104,9.75-22.121
		c3.112-7.014,5.572-13.844,8.082-20.073c2.431-6.261,4.711-12.009,6.615-17.202c1.741-5.258,3.276-9.896,4.569-13.814
		c2.336-7.38,4.389-14.465,5.742-21.055c1.22-6.633,2.012-12.681,2.355-17.827c0.687-10.3-0.426-16.978-3.469-17.729
		c-3.04-0.75-7.419,4.519-12.014,13.534c-2.299,4.511-4.651,9.963-6.921,16.099C817.641,165.334,815.039,172.046,812.769,179.231z"
		/>
	<path fill="#FFBA4A" d="M961.549,298.1c0,0-0.306,0.115-0.747,0.282c-1.466,0.553-2.914,1.102-4.339,1.643
		c-3.018,1.044-7.148,2.921-12.427,5.299c-5.272,2.39-11.717,5.225-19.118,8.695c-7.246,3.749-15.507,8.022-24.69,12.772
		c-4.468,2.576-9.16,5.28-14.066,8.107c-4.872,2.876-10.065,5.685-15.186,9.053c-20.874,12.832-44.015,28.905-68.377,47.9
		c-24.273,19.089-49.887,41.064-74.724,66.531c0,0,10.8-9.084,28.477-22.183c17.655-13.119,42.212-30.208,69.124-46.699
		c26.884-16.54,56.124-32.401,82.147-44.624c6.53-3.005,12.887-5.714,18.85-8.395c2.986-1.323,5.89-2.608,8.703-3.852
		c2.857-1.121,5.616-2.204,8.271-3.246c5.291-2.114,10.156-4.06,14.511-5.8c4.314-1.849,8.29-2.97,11.538-4.233
		c6.139-2.226,11.881-4.648,17.03-7.131c5.219-2.217,9.885-4.38,13.72-6.593c7.672-4.386,12.14-8.651,11.37-11.687
		c-0.766-3.037-6.704-4.254-15.857-3.714c-4.563,0.289-9.955,0.935-15.798,2.149C974.216,293.841,967.979,295.765,961.549,298.1z"/>
	<path fill="#FFBA4A" d="M983.398,429.131c0,0-0.325-0.002-0.798-0.005c-1.567-0.006-3.115-0.013-4.642-0.019
		c-3.188-0.104-7.719,0.173-13.499,0.505c-5.777,0.345-12.811,0.686-20.962,1.28c-8.107,0.908-17.349,1.944-27.625,3.095
		c-5.092,0.806-10.443,1.652-16.034,2.538c-5.578,0.943-11.433,1.709-17.421,3.021c-24.084,4.515-51.444,11.246-80.987,20.27
		c-29.495,9.141-61.276,20.499-93.581,35.396c0,0,13.338-4.619,34.527-10.529c21.18-5.934,50.224-13.106,81.258-18.88
		c31.021-5.829,63.997-10.179,92.676-12.283c7.17-0.471,14.076-0.727,20.603-1.097c3.264-0.167,6.436-0.328,9.504-0.484
		c3.068-0.025,6.035-0.049,8.886-0.073c5.698-0.082,10.938-0.158,15.627-0.225c4.689-0.184,8.801,0.191,12.288,0.175
		c6.53,0.117,12.755-0.091,18.453-0.568c5.669-0.203,10.8-0.553,15.173-1.249c8.731-1.351,14.429-3.737,14.798-6.847
		c0.369-3.109-4.739-6.371-13.48-9.14c-4.364-1.364-9.63-2.69-15.52-3.647C996.752,429.686,990.237,429.251,983.398,429.131z"/>
	<path fill="#FFBA4A" d="M1024.913,524.781c0,0-0.315-0.085-0.772-0.211c-1.51-0.41-3.005-0.817-4.478-1.217
		c-3.052-0.924-7.501-1.827-13.168-3c-5.673-1.16-12.556-2.65-20.581-4.183c-8.069-1.219-17.267-2.608-27.49-4.153
		c-5.127-0.538-10.516-1.102-16.144-1.693c-5.635-0.53-11.487-1.304-17.611-1.585c-24.431-1.864-52.602-2.433-83.475-1.353
		c-30.854,1.206-64.492,3.964-99.546,10.004c0,0,14.076-1.015,36.076-1.246c21.99-0.259,51.902,0.322,83.374,2.767
		c31.472,2.387,64.454,6.71,92.701,12.089c7.047,1.398,13.786,2.937,20.187,4.265c3.194,0.684,6.3,1.348,9.305,1.991
		c2.973,0.768,5.843,1.512,8.605,2.226c5.524,1.394,10.604,2.675,15.151,3.822c4.578,1.034,8.454,2.459,11.824,3.346
		c6.278,1.8,12.348,3.208,17.973,4.221c5.531,1.271,10.576,2.259,14.981,2.716c8.785,0.952,14.905,0.121,16.065-2.789
		c1.16-2.909-2.932-7.38-10.658-12.313c-3.866-2.445-8.608-5.088-14.054-7.535C1037.667,528.77,1031.487,526.665,1024.913,524.781z"
		/>
	<path fill="#FFBA4A" d="M562.96,226.577c0,0,0.12,0.221,0.293,0.541c0.58,1.058,1.154,2.103,1.718,3.134
		c1.246,2.113,2.778,5.272,4.711,9.324c1.968,4.036,4.361,8.949,7.145,14.661c2.545,5.846,5.446,12.512,8.671,19.923
		c2.92,7.549,6.325,15.802,9.63,24.893c6.666,18.167,13.452,39.484,19.938,63.348c6.385,23.884,12.616,50.292,17.153,78.776
		c0,0-0.054-11.448-1.381-29.331c-1.302-17.879-3.923-42.19-8.438-67.776c-4.456-25.588-10.91-52.416-18.194-75.383
		c-1.974-5.698-3.875-11.18-5.673-16.375c-0.933-2.589-1.759-5.137-2.721-7.546c-0.993-2.4-1.952-4.717-2.873-6.947
		c-1.882-4.451-3.61-8.544-5.159-12.206c-1.545-3.667-3.308-6.738-4.638-9.393c-2.589-4.941-5.341-9.499-8.088-13.486
		c-2.973-3.875-5.985-7.153-8.744-9.724c-5.54-5.144-10.216-7.363-12.827-5.633s-2.712,7.017-0.854,14.008
		c0.924,3.505,2.378,7.418,4.216,11.61C558.467,217.329,560.513,221.917,562.96,226.577z"/>
	<path fill="#FFBA4A" d="M681.741,144.884c0,0,0.041,0.248,0.104,0.607c0.208,1.187,0.413,2.362,0.618,3.519
		c0.501,2.401,0.937,5.885,1.463,10.342c0.564,4.455,1.252,9.876,2.053,16.181c0.533,6.354,1.135,13.6,1.81,21.653
		c0.337,8.088,0.911,16.997,1.116,26.668c0.473,19.346,0.047,41.714-1.482,66.395c-1.627,24.669-4.219,51.678-9.078,80.109
		c0,0,3.629-10.858,8.123-28.218c4.512-17.347,9.844-41.212,13.792-66.892c4.008-25.662,6.518-53.142,7.003-77.231
		c-0.038-6.03-0.076-11.832-0.11-17.328c-0.05-2.753-0.016-5.431-0.151-8.022c-0.167-2.59-0.331-5.094-0.489-7.5
		c-0.35-4.82-0.672-9.251-0.959-13.217c-0.284-3.97-0.968-7.443-1.372-10.385c-0.867-5.512-2.009-10.713-3.323-15.37
		c-1.573-4.626-3.371-8.697-5.155-12.02c-3.595-6.652-7.309-10.256-10.339-9.456c-3.027,0.798-4.821,5.772-5.307,12.99
		c-0.255,3.615-0.136,7.788,0.255,12.349C680.458,134.682,680.921,139.685,681.741,144.884z"/>
	<path fill="#FFBA4A" d="M904.987,621.223l-0.341-0.339c-0.697-0.635-1.387-1.263-2.072-1.882
		c-2.828-2.582-8.11-7.407-16.179-13.095c-8.019-5.721-18.847-12.302-32.349-18.118c-13.492-5.792-29.684-10.699-47.761-13.336
		c-18.036-2.584-38.031-3.273-58.473,0.063c0,0,8.217,0.009,20.78,1.808c12.55,1.745,29.416,5.457,46.21,11.779
		c16.829,6.226,33.389,15.173,46.254,24.688c13.045,9.319,22.372,19.058,27.862,24.45c5.055,5.17,10.283,9.27,14.911,11.798
		c4.544,2.567,8.725,3.358,11.266,1.531c2.545-1.826,2.91-6.019,1.29-11.512C914.709,633.638,910.767,627.122,904.987,621.223z"/>
	<path fill="#FFBA4A" d="M479.095,356.815l0.407,0.115c0.785,0.263,1.561,0.523,2.327,0.78c3.204,1.045,9.185,2.928,17.201,6.41
		c8.028,3.431,18.106,8.458,29.303,15.794c11.172,7.35,23.4,17.103,35.524,29.56c12.061,12.477,24.324,27.452,34.534,45.39
		c0,0-2.355-7.862-7.855-19.537c-5.446-11.673-14.196-27.1-25.954-41.942c-11.657-14.885-26.481-28.981-41.228-38.988
		c-14.606-10.256-28.842-16.31-37.138-19.124c-7.864-2.524-15.454-3.128-21.051-2.203c-5.635,1.012-9.22,3.219-9.715,6.313
		c-0.495,3.092,2.087,6.475,6.417,9.387C466.201,351.777,472.208,354.614,479.095,356.815z"/>
	<path fill="#23001E" d="M199.091,790.025c-5.427,6.942-15.791,9.493-24.185,9.524c-2.261,0-26.767-6.07-25.024-8.137
		c-8.652,10.139-24.992,12.592-36.227,5.457c-8.911-5.682-13.433-16.595-12.528-26.961c0.161,0.292,0.322,0.55,0.482,0.776
		c5.07,7.136,13.981,10.719,22.602,10.462c8.848-0.259,17.276-4.23,24.248-9.72c7.817,10.171,23.605,11.334,34.937,5.36
		c10.784-5.651,18.084-16.177,23.312-27.252C212.36,762.611,207.743,778.916,199.091,790.025z"/>
	<path fill="#187A77" d="M204.287,982.465c-45.04,12.786-109.296,30.966-135.773,62.318c-20.439,24.152-25.024-19.986-8.362-52.083
		c16.693-32.062,32.516-57.505,40.846-89.987c4.295-16.758,10.588-44.946,20.083-71.713c-4.875,27.575-5.165,56.084-14.467,82.593
		c-5.067,14.53-13.045,27.996-17.207,42.816c-3.393,12.108-3.714,26.348,4.389,35.97c5.651,6.748,14.659,10.041,23.441,10.494
		c23.993,1.258,45.012-16.08,68.743-19.89C192.05,982.014,198.186,981.949,204.287,982.465z"/>
	<path fill="#EF5B5B" d="M252.087,579.932c-7.703-1.205-17.466-2.54-18.727-2.658c-10.894-1.023-22.369,0.714-31.683,6.086
		c-11.329,6.533-19.657,17.578-23.911,28.694c-4.096,10.7-1.356,22.965,3.286,33.077c4.055,8.84,6.94,10.497,18.443,9.135
		c17.797-2.109,33.254-11.222,44.06-23.636c9.501-10.912,18.594-23.714,19.824-37.526
		C264.217,583.702,261.6,581.419,252.087,579.932z"/>
	<path fill="#FFFFFF" d="M191.842,597.939c8.756,1.909,17.406-3.643,19.316-12.401c1.908-8.758-3.645-17.407-12.402-19.316
		c-8.76-1.909-17.409,3.643-19.316,12.401C177.529,587.38,183.082,596.029,191.842,597.939z"/>
	<path fill="#9E3790" d="M480.923,236.028c0,7.796-6.322,14.117-14.117,14.117c-7.798,0-14.12-6.321-14.12-14.117
		c0-7.798,6.322-14.118,14.12-14.118C474.601,221.909,480.923,228.23,480.923,236.028z"/>
	<path fill="#9E3790" d="M1059.879,370.358c0,7.796-6.322,14.117-14.12,14.117s-14.117-6.321-14.117-14.117
		c0-7.798,6.319-14.118,14.117-14.118S1059.879,362.561,1059.879,370.358z"/>
	<path fill="#9E3790" d="M910.884,160.92c0,7.798-6.319,14.118-14.117,14.118c-7.798,0-14.12-6.321-14.12-14.118
		c0-7.796,6.322-14.117,14.12-14.117C904.565,146.803,910.884,153.124,910.884,160.92z"/>
	<path fill="#9E3790" d="M979.122,612.388c0,7.796-6.322,14.117-14.117,14.117c-7.798,0-14.12-6.321-14.12-14.117
		c0-7.798,6.322-14.118,14.12-14.118C972.8,598.27,979.122,604.59,979.122,612.388z"/>
	<path fill="#9E3790" d="M1150,556.083c0,7.796-6.322,14.118-14.12,14.118c-7.795,0-14.117-6.322-14.117-14.118
		c0-7.798,6.322-14.118,14.117-14.118C1143.678,541.965,1150,548.285,1150,556.083z"/>
	<path fill="#9E3790" d="M433.607,152.651c0,4.567-3.702,8.269-8.271,8.269c-4.566,0-8.268-3.702-8.268-8.269
		c0-4.566,3.702-8.269,8.268-8.269C429.905,144.381,433.607,148.085,433.607,152.651z"/>
	<path fill="#9E3790" d="M476.232,405.394c0,4.567-3.702,8.269-8.271,8.269c-4.566,0-8.268-3.702-8.268-8.269
		c0-4.567,3.702-8.269,8.268-8.269C472.53,397.124,476.232,400.826,476.232,405.394z"/>
	<path fill="#9E3790" d="M878.015,227.914c0,4.567-3.702,8.269-8.268,8.269c-4.569,0-8.271-3.702-8.271-8.269
		c0-4.567,3.702-8.269,8.271-8.269C874.313,219.645,878.015,223.347,878.015,227.914z"/>
	<path fill="#9E3790" d="M973.273,219.645c0,4.567-3.702,8.269-8.268,8.269c-4.569,0-8.271-3.702-8.271-8.269
		c0-4.567,3.702-8.269,8.271-8.269C969.571,211.376,973.273,215.078,973.273,219.645z"/>
	<path fill="#9E3790" d="M1045.759,586.674c0,4.567-3.702,8.269-8.268,8.269c-4.569,0-8.271-3.702-8.271-8.269
		s3.702-8.269,8.271-8.269C1042.057,578.405,1045.759,582.107,1045.759,586.674z"/>
	<path fill="#9E3790" d="M769.636,658.583c0,4.567-3.702,8.269-8.268,8.269c-4.569,0-8.271-3.702-8.271-8.269
		s3.702-8.269,8.271-8.269C765.935,650.313,769.636,654.015,769.636,658.583z"/>
	<path fill="#9E3790" d="M1084.685,279.37c0,4.567-3.702,8.269-8.268,8.269c-4.569,0-8.271-3.702-8.271-8.269
		s3.702-8.269,8.271-8.269C1080.983,271.101,1084.685,274.802,1084.685,279.37z"/>
	<path fill="#9E3790" d="M736.143,550.8c0,4.566-3.702,8.269-8.268,8.269c-4.566,0-8.271-3.703-8.271-8.269
		c0-4.567,3.705-8.271,8.271-8.271C732.441,542.529,736.143,546.233,736.143,550.8z"/>
	<path fill="#9E3790" d="M445.876,436.855c0,4.567-3.702,8.271-8.268,8.271c-4.569,0-8.271-3.703-8.271-8.271
		c0-4.566,3.702-8.269,8.271-8.269C442.174,428.585,445.876,432.289,445.876,436.855z"/>
</g>
</svg>
